#N canvas 0 23 1074 477 10;
#X declare -path pd-osc;
#X declare -path pd-compressor;
#X obj 24 3 adc~;
#X obj 38 405 +~;
#X obj 38 363 p.poly;
#X obj 673 214 loadbang;
#X msg 701 293 \; pd dsp 1;
#X obj 673 239 del 100;
#X obj 60 256 sig~;
#X obj 39 289 vcf~ 0.4;
#X obj 24 106 *~ 1;
#X obj 651 144 declare -path pd-osc;
#X obj 650 121 declare -path pd-compressor;
#X obj 39 334 route 0 1 2;
#X obj 39 311 sigmund~ -npeak 3 -maxfreq 5000 peaks;
#X obj 59 84 line 0;
#X floatatom 195 43 5 0 1 0 - - -, f 5;
#X msg 59 63 \$1 50;
#X floatatom 197 228 5 0 0 0 - - -, f 5;
#X floatatom 216 258 5 0 1 0 - - -, f 5;
#X msg 562 300 save;
#X floatatom 254 419 5 0 1 0 - - -, f 5;
#X floatatom 253 535 5 0 1 0 - - -, f 5;
#X obj 675 265 t b b;
#X obj 563 250 r /save;
#X obj 605 271 r /load;
#X msg 605 298 load;
#X obj 563 278 t b;
#X obj 588 331 pattrstorage save1;
#X obj 706 331 text define save1;
#X obj 626 448 loadbang;
#X obj 545 83 oReceive 9002;
#X msg 561 549 /sys/subscribe 9002 /;
#X obj 601 154 send;
#X obj 547 439 r toOSC;
#X obj 546 390 send /refresh;
#X obj 544 177 route /broadcast/open/websockets;
#X obj 60 42 pattr /adc.gain save1;
#X obj 124 417 pattr /rev.wet save1;
#X obj 61 227 pattr /vcf.freq save1;
#X obj 97 256 pattr /vcf.q save1;
#X obj 118 533 pattr /dac.gain save1;
#X obj 546 362 t b;
#X obj 40 198 compressor~;
#X obj 103 130 loadbang;
#X msg 103 160 threshold -12 \, ratio 100 \, response 40 \, gain 0
\, rmspeak 0 \, lookahead 0;
#X obj 85 364 p.poly;
#X obj 135 365 p.poly;
#N canvas 695 186 450 300 reverberate 0;
#X obj 34 15 inlet~;
#X obj 194 150 rev3~ 100 90 3000 20;
#X obj 166 63 line 0;
#X msg 166 42 \$1 50;
#X obj 177 112 *~;
#X obj 166 86 t a a;
#X obj 60 233 +~;
#X obj 80 153 -;
#X obj 79 125 swap 1;
#X obj 165 13 inlet;
#X obj 61 270 outlet~;
#X obj 57 181 *~ 1;
#X obj 184 203 *~;
#X obj 225 198 *~;
#X obj 121 268 outlet~;
#X obj 123 242 +~;
#X connect 0 0 4 0;
#X connect 0 0 11 0;
#X connect 1 0 12 0;
#X connect 1 1 13 0;
#X connect 2 0 5 0;
#X connect 3 0 2 0;
#X connect 4 0 1 0;
#X connect 5 0 8 0;
#X connect 5 1 4 1;
#X connect 5 1 12 1;
#X connect 5 1 13 1;
#X connect 6 0 10 0;
#X connect 7 0 11 1;
#X connect 8 0 7 0;
#X connect 8 1 7 1;
#X connect 9 0 3 0;
#X connect 11 0 6 0;
#X connect 11 0 15 0;
#X connect 12 0 6 1;
#X connect 13 0 15 1;
#X connect 15 0 14 0;
#X restore 38 443 pd reverberate;
#N canvas 828 256 450 300 lineFactor 0;
#X obj 37 37 inlet~;
#X obj 138 42 inlet~;
#X obj 40 229 outlet~;
#X obj 136 227 outlet~;
#X obj 219 41 inlet;
#X obj 219 107 line 0;
#X msg 219 78 \$1 50;
#X obj 40 144 *~ 0.1;
#X obj 139 147 *~ 0.1;
#X connect 0 0 7 0;
#X connect 1 0 8 0;
#X connect 4 0 6 0;
#X connect 5 0 8 1;
#X connect 5 0 7 1;
#X connect 6 0 5 0;
#X connect 7 0 2 0;
#X connect 8 0 3 0;
#X restore 24 553 pd lineFactor;
#N canvas 547 65 493 456 dryWet 0;
#X obj 13 53 inlet~;
#X obj 91 52 inlet~;
#X obj 169 53 inlet~;
#X obj 35 339 outlet~;
#X obj 110 340 outlet~;
#X obj 299 75 inlet;
#X obj 319 146 line 0;
#X msg 319 125 \$1 50;
#X obj 319 169 t a a;
#X obj 46 225 +~;
#X obj 66 169 -;
#X obj 65 141 swap 1;
#X obj 43 197 *~ 1;
#X obj 101 201 *~;
#X obj 164 257 +~;
#X obj 184 201 -;
#X obj 183 173 swap 1;
#X obj 161 229 *~ 1;
#X obj 219 233 *~;
#X connect 0 0 12 0;
#X connect 0 0 17 0;
#X connect 1 0 13 0;
#X connect 2 0 18 0;
#X connect 5 0 7 0;
#X connect 6 0 8 0;
#X connect 7 0 6 0;
#X connect 8 0 11 0;
#X connect 8 0 16 0;
#X connect 8 1 13 1;
#X connect 8 1 18 1;
#X connect 9 0 3 0;
#X connect 10 0 12 1;
#X connect 11 0 10 0;
#X connect 11 1 10 1;
#X connect 12 0 9 0;
#X connect 13 0 9 1;
#X connect 14 0 4 0;
#X connect 15 0 17 1;
#X connect 16 0 15 0;
#X connect 16 1 15 1;
#X connect 17 0 14 0;
#X connect 18 0 14 1;
#X restore 23 507 pd dryWet;
#X floatatom 255 485 5 0 1 0 - - -, f 5;
#X obj 124 483 pattr /dsp.wet save1;
#X obj 57 2 r /test;
#N canvas 417 148 450 300 test 0;
#X obj 48 37 inlet;
#X obj 142 164 vline~;
#X obj 50 164 noise~;
#X obj 54 230 outlet~;
#X obj 55 199 *~;
#X msg 126 88 0.6 10 \, 0 0 100;
#X connect 0 0 5 0;
#X connect 1 0 4 1;
#X connect 2 0 4 0;
#X connect 4 0 3 0;
#X connect 5 0 1 0;
#X restore 58 20 pd test;
#X obj 25 587 dac~ 1 2 3 4;
#X obj 627 473 t b b;
#X msg 709 547 connect 127.0.0.1 9000;
#X obj 709 511 del 2000;
#X obj 612 514 del 3000;
#X obj 547 584 oSend;
#X connect 0 0 8 0;
#X connect 1 0 46 0;
#X connect 2 0 1 0;
#X connect 3 0 5 0;
#X connect 5 0 21 0;
#X connect 6 0 7 1;
#X connect 7 0 12 0;
#X connect 8 0 41 0;
#X connect 8 0 48 0;
#X connect 11 0 2 0;
#X connect 11 1 44 0;
#X connect 11 2 45 0;
#X connect 12 0 11 0;
#X connect 13 0 8 1;
#X connect 14 0 35 1;
#X connect 15 0 13 0;
#X connect 16 0 37 1;
#X connect 17 0 38 1;
#X connect 18 0 26 0;
#X connect 19 0 36 1;
#X connect 20 0 39 1;
#X connect 21 0 24 0;
#X connect 21 1 4 0;
#X connect 22 0 25 0;
#X connect 23 0 24 0;
#X connect 24 0 26 0;
#X connect 24 0 40 0;
#X connect 25 0 18 0;
#X connect 26 1 27 0;
#X connect 27 0 26 1;
#X connect 28 0 54 0;
#X connect 29 0 34 0;
#X connect 29 1 31 0;
#X connect 29 2 31 1;
#X connect 30 0 58 0;
#X connect 32 0 58 0;
#X connect 34 0 40 0;
#X connect 35 0 15 0;
#X connect 35 1 14 0;
#X connect 36 0 46 1;
#X connect 36 1 19 0;
#X connect 37 0 6 0;
#X connect 37 1 16 0;
#X connect 38 0 7 2;
#X connect 38 1 17 0;
#X connect 39 0 47 2;
#X connect 39 1 20 0;
#X connect 40 0 33 0;
#X connect 41 0 7 0;
#X connect 42 0 43 0;
#X connect 43 0 41 1;
#X connect 44 0 1 0;
#X connect 45 0 1 0;
#X connect 46 0 48 1;
#X connect 46 1 48 2;
#X connect 47 0 53 0;
#X connect 47 0 53 2;
#X connect 47 1 53 1;
#X connect 47 1 53 3;
#X connect 48 0 47 0;
#X connect 48 1 47 1;
#X connect 49 0 50 1;
#X connect 50 0 48 3;
#X connect 50 1 49 0;
#X connect 51 0 52 0;
#X connect 52 0 8 0;
#X connect 54 0 57 0;
#X connect 54 1 56 0;
#X connect 55 0 58 1;
#X connect 56 0 55 0;
#X connect 57 0 30 0;
