#N canvas 0 23 1366 719 10;
#X declare -path pd-osc;
#X declare -path pd-compressor;
#X obj 146 40 adc~;
#X obj 365 684 *~ 0.1;
#X obj 474 601 rev3~ 100 90 3000 20;
#X obj 363 500 +~;
#X obj 148 431 p.poly;
#X obj 183 364 p.poly;
#X obj 244 357 p.poly;
#X obj 373 104 loadbang;
#X msg 372 150 \; pd dsp 1;
#X obj 373 126 del 100;
#X obj 180 227 sig~;
#X floatatom 180 178 5 0 0 0 - - -, f 5;
#X floatatom 222 227 5 0 0 0 - - -, f 5;
#X obj 180 132 loadbang;
#X msg 180 155 200;
#X obj 146 254 vcf~ 0.4;
#X obj 146 91 *~ 1;
#X obj 366 734 dac~;
#X obj 371 72 declare -path pd-osc;
#X obj 370 49 declare -path pd-compressor;
#X obj 146 331 route 0 1 2;
#X obj 463 517 line 0;
#X floatatom 463 476 5 0 1 0 - - -, f 5;
#X msg 463 496 \$1 50;
#X obj 474 566 *~;
#X obj 463 540 t a a;
#X obj 361 616 *~;
#X obj 362 648 +~;
#X obj 377 594 -;
#X obj 376 566 swap 1;
#X obj 146 308 sigmund~ -npeak 3 -maxfreq 5000 peaks;
#X obj 638 601 line 0;
#X floatatom 638 560 5 0 1 0 - - -, f 5;
#X msg 638 580 \$1 50;
#X obj 242 83 line 0;
#X floatatom 242 42 5 0 1 0 - - -, f 5;
#X msg 242 62 \$1 50;
#X obj 555 441 loadbang;
#X msg 548 467 0.09;
#X obj 686 479 loadbang;
#X msg 679 505 1;
#X obj 267 121 loadbang;
#X msg 260 147 0.04;
#X connect 0 0 16 0;
#X connect 1 0 17 0;
#X connect 1 0 17 1;
#X connect 2 0 27 1;
#X connect 3 0 24 0;
#X connect 3 0 26 0;
#X connect 4 0 3 0;
#X connect 5 0 3 0;
#X connect 6 0 3 0;
#X connect 7 0 9 0;
#X connect 9 0 8 0;
#X connect 10 0 15 1;
#X connect 11 0 10 0;
#X connect 12 0 15 2;
#X connect 13 0 14 0;
#X connect 14 0 11 0;
#X connect 15 0 30 0;
#X connect 16 0 15 0;
#X connect 20 0 4 0;
#X connect 20 1 5 0;
#X connect 20 2 6 0;
#X connect 21 0 25 0;
#X connect 22 0 23 0;
#X connect 23 0 21 0;
#X connect 24 0 2 0;
#X connect 25 0 29 0;
#X connect 25 1 24 1;
#X connect 26 0 27 0;
#X connect 27 0 1 0;
#X connect 28 0 26 1;
#X connect 29 0 28 0;
#X connect 29 1 28 1;
#X connect 30 0 20 0;
#X connect 31 0 1 1;
#X connect 32 0 33 0;
#X connect 33 0 31 0;
#X connect 34 0 16 1;
#X connect 35 0 36 0;
#X connect 36 0 34 0;
#X connect 37 0 38 0;
#X connect 38 0 22 0;
#X connect 39 0 40 0;
#X connect 40 0 32 0;
#X connect 41 0 42 0;
#X connect 42 0 35 0;
