#N canvas 542 57 750 581 10;
#X declare -path pd-osc;
#X obj 162 54 adc~;
#X obj 35 61 noise~;
#X obj 211 493 *~ 0.1;
#X obj 243 445 rev3~ 100 90 3000 20;
#X obj 139 310 route 0 1 2 3;
#X obj 211 406 +~;
#X obj 140 388 p.poly;
#X obj 158 363 p.poly;
#X obj 176 338 p.poly;
#X obj 139 287 sigmund~ -npeak 3 -maxfreq 5000 peaks;
#X obj 373 104 loadbang;
#X msg 372 150 \; pd dsp 1;
#X obj 373 126 del 100;
#X obj 180 227 sig~;
#X floatatom 180 198 5 0 0 0 - - -, f 5;
#X floatatom 222 227 5 0 0 0 - - -, f 5;
#X obj 180 152 loadbang;
#X msg 180 175 200;
#X obj 146 254 vcf~ 0.4;
#X obj 35 114 *~ 0;
#X obj 162 105 *~ 1;
#X obj 147 215 +~;
#X floatatom 182 82 5 1e-06 1.5 0 - - -, f 5;
#X floatatom 58 90 5 1e-07 1.2 0 - - -, f 5;
#X obj 211 551 dac~;
#X obj 371 72 declare -path pd-osc;
#X connect 0 0 20 0;
#X connect 1 0 19 0;
#X connect 2 0 24 0;
#X connect 2 0 24 1;
#X connect 3 0 2 0;
#X connect 4 0 6 0;
#X connect 4 1 7 0;
#X connect 4 2 8 0;
#X connect 5 0 2 0;
#X connect 5 0 3 0;
#X connect 6 0 5 0;
#X connect 7 0 5 0;
#X connect 8 0 5 0;
#X connect 9 0 4 0;
#X connect 10 0 12 0;
#X connect 12 0 11 0;
#X connect 13 0 18 1;
#X connect 14 0 13 0;
#X connect 15 0 18 2;
#X connect 16 0 17 0;
#X connect 17 0 14 0;
#X connect 18 0 9 0;
#X connect 19 0 21 0;
#X connect 20 0 21 1;
#X connect 21 0 18 0;
#X connect 22 0 20 1;
#X connect 23 0 19 1;
