#N canvas 123 85 694 614 10;
#X declare -path pd-osc;
#X declare -path pd-compressor;
#X obj 34 84 adc~;
#X obj 87 622 *~ 0.1;
#X obj 196 526 rev3~ 100 90 3000 20;
#X obj 85 438 +~;
#X obj 38 391 p.poly;
#X obj 512 209 loadbang;
#X msg 540 288 \; pd dsp 1;
#X obj 512 234 del 100;
#X obj 60 284 sig~;
#X obj 39 317 vcf~ 0.4;
#X obj 40 229 *~ 1;
#X obj 88 672 dac~;
#X obj 389 183 declare -path pd-osc;
#X obj 388 160 declare -path pd-compressor;
#X obj 39 362 route 0 1 2;
#X obj 185 442 line 0;
#X msg 185 421 \$1 50;
#X obj 196 491 *~;
#X obj 185 465 t a a;
#X obj 83 554 *~;
#X obj 84 586 +~;
#X obj 99 532 -;
#X obj 98 504 swap 1;
#X obj 39 339 sigmund~ -npeak 3 -maxfreq 5000 peaks;
#X obj 200 598 line 0;
#X msg 200 577 \$1 50;
#X obj 60 207 line 0;
#X floatatom 196 166 5 0 1 0 - - -, f 5;
#X msg 60 186 \$1 50;
#X floatatom 197 256 5 0 0 0 - - -, f 5;
#X floatatom 216 286 5 0 1 0 - - -, f 5;
#X msg 406 331 save;
#X floatatom 315 397 5 0 1 0 - - -, f 5;
#X floatatom 335 555 5 0 1 0 - - -, f 5;
#X obj 514 260 t b b;
#X obj 85 392 p.poly;
#X obj 135 393 p.poly;
#X obj 407 281 r /save;
#X obj 449 302 r /load;
#X msg 449 329 load;
#X obj 407 309 t b;
#X obj 415 363 pattrstorage save1;
#X obj 550 362 text define save1;
#X obj 530 409 loadbang;
#X obj 283 122 oReceive 9002;
#X msg 556 463 /sys/subscribe 9002 /;
#X obj 339 193 send;
#X obj 488 474 r toOSC;
#X obj 505 535 oSend 127.0.0.1 9000;
#X obj 402 427 send /refresh;
#X obj 282 216 route /broadcast/open/websockets;
#X obj 61 165 pattr /adc.gain save1;
#X obj 185 395 pattr /rev.wet save1;
#X obj 61 255 pattr /vcf.freq save1;
#X obj 97 284 pattr /vcf.q save1;
#X obj 200 553 pattr /dac.gain save1;
#X obj 401 393 t b;
#X obj 39 135 compressor~;
#X obj 107 54 loadbang;
#X msg 99 86 threshold -40 \, ratio 100 \, response 40 \, gain 0 \,
rmspeak 0 \, lookahead 0;
#X connect 0 0 57 0;
#X connect 1 0 11 0;
#X connect 1 0 11 1;
#X connect 2 0 20 1;
#X connect 3 0 17 0;
#X connect 3 0 19 0;
#X connect 4 0 3 0;
#X connect 5 0 7 0;
#X connect 7 0 34 0;
#X connect 8 0 9 1;
#X connect 9 0 23 0;
#X connect 10 0 9 0;
#X connect 14 0 4 0;
#X connect 14 1 35 0;
#X connect 14 2 36 0;
#X connect 15 0 18 0;
#X connect 16 0 15 0;
#X connect 17 0 2 0;
#X connect 18 0 22 0;
#X connect 18 1 17 1;
#X connect 19 0 20 0;
#X connect 20 0 1 0;
#X connect 21 0 19 1;
#X connect 22 0 21 0;
#X connect 22 1 21 1;
#X connect 23 0 14 0;
#X connect 24 0 1 1;
#X connect 25 0 24 0;
#X connect 26 0 10 1;
#X connect 27 0 51 1;
#X connect 28 0 26 0;
#X connect 29 0 53 1;
#X connect 30 0 54 1;
#X connect 31 0 41 0;
#X connect 32 0 52 1;
#X connect 33 0 55 1;
#X connect 34 0 39 0;
#X connect 34 1 6 0;
#X connect 35 0 3 0;
#X connect 36 0 3 0;
#X connect 37 0 40 0;
#X connect 38 0 39 0;
#X connect 39 0 41 0;
#X connect 39 0 56 0;
#X connect 40 0 31 0;
#X connect 41 1 42 0;
#X connect 42 0 41 1;
#X connect 43 0 45 0;
#X connect 44 0 50 0;
#X connect 44 1 46 0;
#X connect 44 2 46 1;
#X connect 45 0 48 0;
#X connect 47 0 48 0;
#X connect 50 0 56 0;
#X connect 51 0 28 0;
#X connect 51 1 27 0;
#X connect 52 0 16 0;
#X connect 52 1 32 0;
#X connect 53 0 8 0;
#X connect 53 1 29 0;
#X connect 54 0 9 2;
#X connect 54 1 30 0;
#X connect 55 0 25 0;
#X connect 55 1 33 0;
#X connect 56 0 49 0;
#X connect 57 0 10 0;
#X connect 58 0 59 0;
#X connect 59 0 57 1;
