#N canvas 0 22 450 300 10;
#X obj 55 92 bng 15 250 50 0 empty empty empty 17 7 0 10 -262144 -1
-1;
#X msg 76 213 1, f 9;
#X obj 98 132 + 1;
#X obj 64 189 sel 1;
#X obj 58 133 i;
#X obj 77 82 loadbang;
#X msg 75 108 1;
#X obj 87 7 inlet;
#X obj 49 286 outlet;
#X obj 90 40 t b a;
#X obj 431 298 vradio 15 1 0 8 empty empty empty 0 -8 0 10 -262144
-1 -1 0;
#X obj 60 168 >= \$1;
#X obj 52 244 list append;
#X connect 0 0 4 0;
#X connect 1 0 4 1;
#X connect 2 0 4 1;
#X connect 3 0 1 0;
#X connect 4 0 2 0;
#X connect 4 0 11 0;
#X connect 4 0 12 0;
#X connect 5 0 6 0;
#X connect 6 0 4 1;
#X connect 7 0 9 0;
#X connect 9 0 4 0;
#X connect 9 1 12 1;
#X connect 11 0 3 0;
#X connect 12 0 8 0;
