#N canvas 15 23 607 527 10;
#X obj 31 9 inlet;
#X obj 319 627 outlet~;
#X obj 42 605 voice;
#X obj 55 583 voice;
#X obj 89 545 voice;
#X obj 75 567 voice;
#X obj 103 523 voice;
#X obj 119 497 voice;
#X obj 133 470 voice;
#X obj 149 444 voice;
#X obj 164 421 voice;
#X obj 178 401 voice;
#X obj 192 375 voice;
#X obj 31 35 p.allocate 10;
#X obj 31 64 route 1 2 3 4 5 6 7 8 9 10;
#X connect 0 0 13 0;
#X connect 2 0 1 0;
#X connect 3 0 1 0;
#X connect 4 0 1 0;
#X connect 5 0 1 0;
#X connect 6 0 1 0;
#X connect 7 0 1 0;
#X connect 8 0 1 0;
#X connect 9 0 1 0;
#X connect 10 0 1 0;
#X connect 11 0 1 0;
#X connect 12 0 1 0;
#X connect 13 0 14 0;
#X connect 14 0 2 0;
#X connect 14 1 3 0;
#X connect 14 2 5 0;
#X connect 14 3 4 0;
#X connect 14 4 6 0;
#X connect 14 5 7 0;
#X connect 14 6 8 0;
#X connect 14 7 9 0;
#X connect 14 8 10 0;
#X connect 14 9 11 0;
#X connect 14 10 12 0;
