#N canvas 633 121 607 527 10;
#X obj 31 9 inlet;
#X obj 32 325 voice;
#X obj 45 303 voice;
#X obj 79 265 voice;
#X obj 65 287 voice;
#X obj 93 243 voice;
#X obj 109 217 voice;
#X obj 123 190 voice;
#X obj 139 164 voice;
#X obj 154 141 voice;
#X obj 168 121 voice;
#X obj 184 95 voice;
#X obj 31 35 p.allocate 10;
#X obj 31 64 route 1 2 3 4 5 6 7 8 9 10;
#X obj 211 385 outlet~;
#X obj 210 347 compressor~;
#X obj 270 241 loadbang;
#X msg 270 271 threshold -24 \, ratio 30 \, response 40 \, gain 0 \,
rmspeak 0 \, lookahead 0;
#X connect 0 0 12 0;
#X connect 1 0 15 0;
#X connect 2 0 15 0;
#X connect 3 0 15 0;
#X connect 4 0 15 0;
#X connect 5 0 15 0;
#X connect 6 0 15 0;
#X connect 7 0 15 0;
#X connect 8 0 15 0;
#X connect 9 0 15 0;
#X connect 10 0 15 0;
#X connect 11 0 15 0;
#X connect 12 0 13 0;
#X connect 13 0 1 0;
#X connect 13 1 2 0;
#X connect 13 2 4 0;
#X connect 13 3 3 0;
#X connect 13 4 5 0;
#X connect 13 5 6 0;
#X connect 13 6 7 0;
#X connect 13 7 8 0;
#X connect 13 8 9 0;
#X connect 13 9 10 0;
#X connect 13 10 11 0;
#X connect 15 0 14 0;
#X connect 16 0 17 0;
#X connect 17 0 15 1;
