#N canvas 814 34 552 405 10;
#X obj 19 7 inlet;
#X obj 327 296 outlet;
#X obj 74 6 inlet;
#X obj 418 345 outlet;
#X obj 418 292 list prepend set;
#X obj 418 318 list trim;
#X obj 303 205 send;
#X obj 414 42 loadbang;
#X obj 284 132 t a a b;
#X obj 20 63 route recall;
#X obj 137 73 route save;
#X obj 20 89 t b;
#X obj 134 102 t b;
#X msg 116 5 save;
#X obj 135 207 sel -1;
#X msg 134 237 1e+06;
#X obj 134 263 t b a;
#X obj 135 292 list prepend;
#X obj 431 72 bng 15 250 50 0 empty empty empty 17 7 0 10 -262144 -1
-1;
#X obj 18 200 list trim;
#X obj 414 104 symbol \$1;
#X obj 359 248 receive \$1;
#X obj 136 348 text set \$2;
#X obj 135 323 list prepend \$1;
#X obj 20 234 route \$1;
#X obj 135 177 text search \$2;
#X obj 135 151 symbol \$1;
#X obj 19 115 symbol \$1;
#X obj 17 142 text search \$2;
#X obj 18 167 text get \$2;
#X obj 269 350 list prepend \$1;
#X obj 269 397 send toOSC;
#X obj 269 373 list trim;
#X obj 268 324 list;
#X obj 268 301 t b a;
#X obj 251 228 r /refresh;
#X obj 251 250 t b;
#X obj 251 268 del 100;
#X obj 287 64 bng 15 250 50 0 empty empty empty 17 7 0 10 -262144 -1
-1;
#X obj 158 30 receive pattr-\$2;
#X connect 0 0 9 0;
#X connect 2 0 9 0;
#X connect 4 0 5 0;
#X connect 5 0 3 0;
#X connect 7 0 20 0;
#X connect 8 0 17 1;
#X connect 8 1 6 0;
#X connect 9 0 11 0;
#X connect 9 1 10 0;
#X connect 10 0 12 0;
#X connect 10 1 8 0;
#X connect 11 0 27 0;
#X connect 12 0 26 0;
#X connect 13 0 9 0;
#X connect 14 0 15 0;
#X connect 14 1 16 0;
#X connect 15 0 16 0;
#X connect 16 0 17 0;
#X connect 16 1 22 1;
#X connect 17 0 23 0;
#X connect 18 0 20 0;
#X connect 19 0 24 0;
#X connect 20 0 6 1;
#X connect 21 0 1 0;
#X connect 21 0 4 0;
#X connect 21 0 34 0;
#X connect 21 0 17 1;
#X connect 23 0 22 0;
#X connect 24 0 8 0;
#X connect 25 0 14 0;
#X connect 26 0 25 0;
#X connect 27 0 28 0;
#X connect 28 0 29 0;
#X connect 29 0 19 0;
#X connect 30 0 32 0;
#X connect 32 0 31 0;
#X connect 33 0 30 0;
#X connect 34 0 33 0;
#X connect 34 1 33 1;
#X connect 35 0 36 0;
#X connect 36 0 37 0;
#X connect 37 0 33 0;
#X connect 38 0 12 0;
#X connect 39 0 9 0;
