#N canvas 771 98 536 506 10;
#X obj 22 -5 inlet;
#X obj 308 368 outlet;
#X obj 402 -3 inlet;
#X obj 21 380 outlet;
#X obj 306 86 t b b;
#X obj 334 278 list prepend read;
#X obj 307 161 symbol \$1;
#X obj 306 201 combine file .txt;
#X obj 334 315 list trim;
#X msg 36 23 save;
#X obj 18 123 t b b;
#X obj 18 204 symbol \$1;
#X obj 17 244 combine file .txt;
#X obj 17 278 list prepend write;
#X msg 129 137 save;
#X obj 97 -20 loadbang;
#X obj 18 166 del 100;
#X obj 20 70 route save load;
#X msg 451 116 1;
#X obj 429 161 spigot;
#X obj 401 30 t b a;
#X msg 401 114 0;
#X obj 307 247 t b a;
#X obj 430 187 t b;
#X obj 101 2 del 100;
#X msg 432 214 recall bang;
#X obj 129 195 send pattr-\$1;
#X msg 75 34 load;
#X obj 433 246 send pattr-\$1;
#X connect 0 0 17 0;
#X connect 2 0 20 0;
#X connect 4 0 6 0;
#X connect 4 1 18 0;
#X connect 5 0 8 0;
#X connect 6 0 7 0;
#X connect 7 0 22 0;
#X connect 8 0 1 0;
#X connect 9 0 17 0;
#X connect 10 0 16 0;
#X connect 10 1 14 0;
#X connect 11 0 12 0;
#X connect 12 0 13 0;
#X connect 13 0 8 0;
#X connect 14 0 26 0;
#X connect 15 0 24 0;
#X connect 16 0 11 0;
#X connect 17 0 10 0;
#X connect 17 1 4 0;
#X connect 18 0 19 1;
#X connect 19 0 23 0;
#X connect 20 0 21 0;
#X connect 20 1 19 0;
#X connect 21 0 19 1;
#X connect 22 0 1 0;
#X connect 22 1 5 0;
#X connect 23 0 25 0;
#X connect 24 0 27 0;
#X connect 25 0 28 0;
#X connect 27 0 17 0;
