#N canvas 431 73 632 416 10;
#X obj 61 128 osc~;
#X obj 62 70 list split 1;
#X obj 62 101 list trim;
#X obj 97 150 list split 1;
#X obj 97 175 list trim;
#X obj 97 225 clip 0 1;
#X obj 62 48 inlet;
#X obj 62 335 outlet~;
#X obj 97 273 vline~;
#X text 308 234 attack+decay;
#X text 155 317 volume envelope;
#X text 169 209 sine;
#X obj 63 306 *~;
#X msg 97 249 \$1 100 \, 0 800 20;
#X obj 97 200 * 10;
#X connect 0 0 12 0;
#X connect 1 0 2 0;
#X connect 1 1 3 0;
#X connect 2 0 0 0;
#X connect 3 0 4 0;
#X connect 4 0 14 0;
#X connect 5 0 13 0;
#X connect 6 0 1 0;
#X connect 8 0 12 1;
#X connect 12 0 7 0;
#X connect 13 0 8 0;
#X connect 14 0 5 0;
